<svg width="80" height="80" viewBox="0 0 80 80" fill="none" xmlns="http://www.w3.org/2000/svg">
<path d="M41.7288 79.8371C38.7733 80.1864 35.9175 79.9179 33.0621 79.5576C29.2005 79.0703 25.5569 77.8221 22.0504 76.1305C18.4783 74.4072 15.2866 72.0797 12.3812 69.3275C9.07665 66.1972 6.41531 62.5389 4.33497 58.4458C2.37794 54.5953 1.08725 50.4913 0.473248 46.1782C-0.505156 39.3052 -0.00676911 32.5706 2.34571 26.029C3.94087 21.5932 6.31508 17.6343 9.24012 14.0191C12.3841 10.1334 16.1085 6.9824 20.4432 4.63605C24.3714 2.50971 28.5366 1.13128 32.927 0.444442C36.1593 -0.0612226 39.4088 -0.116276 42.6346 0.182496C46.5671 0.54671 50.3746 1.57582 54.0012 3.26839C60.8668 6.47257 66.6385 11.0743 70.8387 17.61C73.8057 22.227 75.7151 27.3299 76.7189 32.7815C76.9767 34.1811 77.1072 35.6078 77.2539 37.0267C77.3084 37.5539 77.5044 37.7925 78.0122 37.927C80.0635 38.4704 80.5962 40.1191 79.2863 41.842C76.9365 44.9324 74.5755 48.0138 72.2056 51.0876C70.9282 52.7445 69.401 52.6959 68.1307 51.0195C65.9814 48.1829 63.8845 45.2986 61.6303 42.554C59.9164 40.4674 60.67 38.4176 62.8445 37.6165C62.5385 32.6325 60.7085 28.2768 57.7075 24.4241C53.9582 19.6106 49.2045 16.395 43.3113 15.2907C34.0752 13.5599 26.3989 16.5546 20.211 23.8456C16.97 27.6644 15.122 32.1268 14.4819 37.1087C13.9485 41.2603 14.5615 45.3251 16.0912 49.1936C18.4396 55.1327 22.3483 59.6593 27.9011 62.536C31.7243 64.5167 35.8026 65.2757 40.0946 65.0266C43.0918 64.8527 45.9482 64.2396 48.6833 62.9772C51.6471 61.6092 54.1272 59.5607 56.3313 57.1249C56.9011 56.4951 57.4289 55.8213 58.0276 55.2234C59.2992 53.9538 60.9213 53.7933 62.3453 54.843C64.3843 56.3461 66.4067 57.8758 68.3928 59.4531C70.2885 60.9585 70.4724 62.9666 68.9756 64.8993C62.6574 73.0571 54.4617 77.8321 44.5398 79.4872C43.6349 79.6382 42.7191 79.7197 41.7288 79.8371Z" fill="#E87F89"/>
<path d="M28.8905 44.6052C31.0264 43.5427 33.2603 43.8982 34.5408 45.4637C35.689 46.8672 35.8634 48.8423 34.9746 50.3752C34.0462 51.9765 32.0368 52.8576 30.2861 52.4246C28.4652 51.9742 27.2432 50.8313 26.9185 48.9083C26.611 47.0867 27.3678 45.6616 28.8905 44.6052Z" fill="#E87F89"/>
<path d="M46.6804 52.5726C43.2556 52.5603 41.1357 49.511 42.4193 46.5525C43.1918 44.7721 45.347 43.6652 47.2214 44.086C49.3154 44.5562 50.6803 46.1478 50.6967 48.1384C50.7149 50.3512 49.4743 51.9559 47.3468 52.4662C47.1524 52.5128 46.9529 52.5372 46.6804 52.5726Z" fill="#E87F89"/>
<path d="M27.036 32.4214C26.8883 30.06 28.0628 28.291 30.1046 27.699C32.1661 27.1012 34.3601 28.0187 35.2696 30.0078C36.267 32.1895 35.3942 35.0163 32.5911 35.8621C30.079 36.6201 27.6811 35.1291 27.036 32.4214Z" fill="#E87F89"/>
<path d="M50.5013 30.4508C50.9744 32.3003 50.6048 33.8563 49.2037 35.0118C47.7236 36.2324 46.0482 36.3604 44.3571 35.5296C42.7799 34.7547 41.9777 33.3867 42.0573 31.5813C42.1354 29.809 43.0828 28.5872 44.6347 27.8963C46.2559 27.1747 47.8083 27.4149 49.149 28.5595C49.7012 29.0308 50.0446 29.7654 50.5013 30.4508Z" fill="#E87F89"/>
</svg>
