<svg width="411" height="105" viewBox="0 0 411 105" fill="none" xmlns="http://www.w3.org/2000/svg">
<path d="M0 3.53252H23.7581C36.9364 3.53252 47.3306 8.48786 47.3306 23.1669C47.3306 30.2726 44.268 36.3499 37.7717 39.7158C47.3306 41.3988 54.1054 46.7281 54.1054 59.1632C54.1054 71.8788 44.9177 80.6675 29.048 80.6675H0V3.53252ZM17.4474 33.732H18.8394C26.3566 33.732 30.4401 31.3946 30.4401 24.9433C30.4401 19.427 26.4494 17.0896 18.8394 17.0896H17.4474V33.732ZM17.4474 67.1104H22.9229C31.1825 67.1104 35.73 64.586 35.73 58.5087C35.73 51.403 31.1825 48.8785 22.9229 48.8785H17.4474V67.1104ZM53.4572 80.6675V32.7036H69.8837V39.6223H70.0693C70.0693 39.6223 75.2665 31.3011 84.6398 31.3011C90.7649 31.3011 95.0339 34.293 95.0339 34.293L88.1664 48.3176C88.1664 48.3176 85.1038 45.6996 79.6283 45.6996C71.0902 45.6996 69.8837 54.2079 69.8837 55.4233V80.6675H53.4572ZM139.129 58.9762H104.606C104.606 66.3625 110.731 68.8869 114.907 68.8869C120.197 68.8869 122.517 67.8584 126.508 63.5576L138.387 69.5414C133.004 78.6106 124.281 82.07 113.701 82.07C99.3161 82.07 87.5299 70.6633 87.5299 56.7323C87.5299 42.7077 99.3161 31.3011 113.701 31.3011C128.178 31.3011 139.222 39.9028 139.222 56.7323C139.222 57.3868 139.222 58.4152 139.129 58.9762ZM105.07 49.8135H123.167C122.425 44.7647 118.991 42.0533 114.165 42.0533C108.504 42.0533 105.348 45.4192 105.07 49.8135ZM166.742 2.13007C180.663 2.13007 190.5 9.42283 190.5 9.42283L183.447 23.4474C183.447 23.4474 175.837 18.118 167.949 18.118C162.009 18.118 158.854 20.8295 158.854 25.0368C158.854 29.3377 166.092 32.4231 174.816 36.163C183.354 39.8093 192.728 47.1021 192.728 57.1998C192.728 75.6187 178.807 82.07 163.865 82.07C145.954 82.07 135.096 71.8788 135.096 71.8788L143.819 57.1063C143.819 57.1063 154.028 65.8015 162.566 65.8015C166.371 65.8015 173.61 65.4275 173.61 58.2282C173.61 52.6184 165.443 50.094 156.348 45.5126C147.16 40.9313 141.778 33.732 141.778 25.6913C141.778 11.2928 154.399 2.13007 166.742 2.13007ZM192.53 80.6675V0.260132H208.957V37.7524H209.142C212.855 34.0125 217.588 31.3011 222.785 31.3011C231.508 31.3011 243.666 35.6955 243.666 49.0655V80.6675H227.239V53.5534C227.239 48.785 223.991 44.2037 218.701 44.2037C213.783 44.2037 208.957 48.785 208.957 53.5534V80.6675H192.53ZM355.694 56.6388C355.694 70.6633 345.949 82.07 332.029 82.07C325.625 82.07 320.335 79.9195 316.437 76.0861V104.977H300.011V32.7036H316.252V38.1264H316.437C319.964 34.1995 325.532 31.3011 332.029 31.3011C345.949 31.3011 355.694 42.6142 355.694 56.6388ZM338.247 56.6388C338.247 50.094 333.792 45.4192 327.11 45.4192C320.706 45.4192 316.066 50.094 316.066 56.6388C316.066 63.2771 320.985 67.9519 327.11 67.9519C333.328 67.9519 338.247 63.2771 338.247 56.6388ZM410.692 56.6388C410.692 70.6633 400.947 82.07 387.027 82.07C380.623 82.07 375.333 79.9195 371.435 76.0861V104.977H355.009V32.7036H371.25V38.1264H371.435C374.962 34.1995 380.53 31.3011 387.027 31.3011C400.947 31.3011 410.692 42.6142 410.692 56.6388ZM393.244 56.6388C393.244 50.094 388.79 45.4192 382.108 45.4192C375.704 45.4192 371.064 50.094 371.064 56.6388C371.064 63.2771 375.983 67.9519 382.108 67.9519C388.326 67.9519 393.244 63.2771 393.244 56.6388Z" fill="#F8F8F8"/>
<path d="M360.351 38.0953C360.292 34.6533 371.57 31.3344 383.058 31.1336C394.547 30.9329 401.947 35.0935 402.006 38.5354C402.066 41.9774 404.748 41.9951 386.66 42.3111C370.886 45.7038 360.411 41.5372 360.351 38.0953Z" fill="#F8F8F8"/>
<path d="M303.889 37.7642C303.83 34.3222 315.108 31.0032 326.597 30.8025C338.085 30.6018 345.485 34.7624 345.544 38.2044C345.604 41.6463 348.287 41.664 330.198 41.9801C314.424 45.3728 303.948 41.2062 303.889 37.7642Z" fill="#F8F8F8"/>
<path d="M273.647 83.6711C271.618 83.9127 269.658 83.7272 267.699 83.4779C265.047 83.1413 262.547 82.278 260.14 81.1085C257.689 79.9164 255.498 78.3075 253.503 76.4041C251.236 74.2396 249.409 71.71 247.981 68.8796C246.637 66.217 245.752 63.3792 245.33 60.3967C244.659 55.6442 245.001 50.9872 246.616 46.4638C247.711 43.3965 249.34 40.6589 251.348 38.1592C253.506 35.4722 256.062 33.2933 259.037 31.6709C261.733 30.2005 264.592 29.2473 267.606 28.7724C269.824 28.4228 272.054 28.3847 274.268 28.5913C276.967 28.8431 279.581 29.5547 282.07 30.7251C286.782 32.9408 290.744 36.1228 293.627 40.6422C295.664 43.8348 296.974 47.3633 297.663 51.1331C297.84 52.1009 297.93 53.0874 298.03 54.0686C298.067 54.4331 298.202 54.5982 298.551 54.6911C299.958 55.0668 300.324 56.2069 299.425 57.3983C297.812 59.5353 296.192 61.666 294.566 63.7916C293.689 64.9373 292.64 64.9036 291.768 63.7444C290.293 61.7829 288.854 59.7885 287.307 57.8907C286.13 56.4478 286.648 55.0304 288.14 54.4765C287.93 51.03 286.674 48.0182 284.614 45.354C282.041 42.0256 278.778 39.802 274.733 39.0384C268.394 37.8416 263.125 39.9124 258.877 44.954C256.653 47.5946 255.385 50.6803 254.946 54.1252C254.579 56.9961 255 59.8068 256.05 62.4818C257.662 66.5886 260.344 69.7188 264.156 71.708C266.78 73.0775 269.579 73.6024 272.525 73.4302C274.582 73.3099 276.543 72.8859 278.42 72.0131C280.455 71.0671 282.157 69.6506 283.67 67.9662C284.061 67.5307 284.423 67.0648 284.834 66.6514C285.707 65.7735 286.82 65.6624 287.797 66.3883C289.197 67.4277 290.585 68.4855 291.949 69.5761C293.249 70.6172 293.375 72.0057 292.348 73.3421C288.011 78.983 282.386 82.285 275.576 83.4296C274.955 83.534 274.326 83.5901 273.647 83.6711Z" fill="#F8F8F8"/>
<path d="M264.835 59.3089C266.301 58.5743 267.834 58.8201 268.713 59.9026C269.501 60.8731 269.621 62.2389 269.011 63.2989C268.374 64.4061 266.995 65.0154 265.793 64.716C264.543 64.4045 263.704 63.6142 263.481 62.2845C263.27 61.0249 263.79 60.0394 264.835 59.3089Z" fill="#F8F8F8"/>
<path d="M277.046 64.8185C274.695 64.8099 273.24 62.7013 274.121 60.6556C274.651 59.4245 276.13 58.6591 277.417 58.9501C278.854 59.2752 279.791 60.3758 279.802 61.7522C279.814 63.2823 278.963 64.392 277.503 64.7448C277.37 64.7771 277.233 64.7939 277.046 64.8185Z" fill="#F8F8F8"/>
<path d="M263.562 50.8842C263.46 49.2513 264.267 48.028 265.668 47.6186C267.083 47.2053 268.589 47.8398 269.214 49.2152C269.898 50.7238 269.299 52.6785 267.375 53.2634C265.651 53.7875 264.005 52.7565 263.562 50.8842Z" fill="#F8F8F8"/>
<path d="M279.668 49.5216C279.993 50.8006 279.739 51.8765 278.777 52.6755C277.762 53.5195 276.612 53.6081 275.451 53.0335C274.368 52.4977 273.817 51.5518 273.872 50.3033C273.926 49.0778 274.576 48.2329 275.641 47.7552C276.754 47.2562 277.82 47.4223 278.74 48.2138C279.119 48.5397 279.355 49.0477 279.668 49.5216Z" fill="#F8F8F8"/>
</svg>
