<svg width="412" height="106" viewBox="0 0 412 106" fill="none" xmlns="http://www.w3.org/2000/svg">
<path d="M0.568298 4.01225H24.3264C37.5047 4.01225 47.8989 8.9676 47.8989 23.6466C47.8989 30.7524 44.8363 36.8297 38.34 40.1956C47.8989 41.8785 54.6737 47.2078 54.6737 59.6429C54.6737 72.3585 45.486 81.1472 29.6163 81.1472H0.568298V4.01225ZM18.0157 34.2118H19.4077C26.9249 34.2118 31.0084 31.8743 31.0084 25.4231C31.0084 19.9067 27.0177 17.5693 19.4077 17.5693H18.0157V34.2118ZM18.0157 67.5902H23.4911C31.7508 67.5902 36.2983 65.0658 36.2983 58.9885C36.2983 51.8827 31.7508 49.3583 23.4911 49.3583H18.0157V67.5902ZM54.0255 81.1472V33.1833H70.452V40.1021H70.6376C70.6376 40.1021 75.8348 31.7809 85.2081 31.7809C91.3332 31.7809 95.6022 34.7728 95.6022 34.7728L88.7347 48.7973C88.7347 48.7973 85.6721 46.1794 80.1966 46.1794C71.6585 46.1794 70.452 54.6876 70.452 55.9031V81.1472H54.0255ZM139.698 59.4559H105.174C105.174 66.8422 111.299 69.3666 115.476 69.3666C120.766 69.3666 123.086 68.3382 127.076 64.0373L138.955 70.0211C133.573 79.0903 124.849 82.5497 114.269 82.5497C99.8844 82.5497 88.0982 71.1431 88.0982 57.212C88.0982 43.1875 99.8844 31.7809 114.269 31.7809C128.747 31.7809 139.791 40.3826 139.791 57.212C139.791 57.8665 139.791 58.895 139.698 59.4559ZM105.638 50.2932H123.735C122.993 45.2444 119.559 42.533 114.733 42.533C109.072 42.533 105.917 45.8989 105.638 50.2932ZM167.31 2.60981C181.231 2.60981 191.068 9.90257 191.068 9.90257L184.015 23.9271C184.015 23.9271 176.405 18.5978 168.517 18.5978C162.577 18.5978 159.422 21.3092 159.422 25.5166C159.422 29.8174 166.661 32.9028 175.384 36.6427C183.923 40.2891 193.296 47.5818 193.296 57.6795C193.296 76.0984 179.375 82.5497 164.433 82.5497C146.522 82.5497 135.664 72.3585 135.664 72.3585L144.388 57.586C144.388 57.586 154.596 66.2812 163.134 66.2812C166.939 66.2812 174.178 65.9072 174.178 58.708C174.178 53.0981 166.011 50.5737 156.916 45.9924C147.729 41.411 142.346 34.2118 142.346 26.171C142.346 11.7725 154.967 2.60981 167.31 2.60981ZM193.099 81.1472V0.739868H209.525V38.2321H209.711C213.423 34.4923 218.156 31.7809 223.353 31.7809C232.077 31.7809 244.234 36.1752 244.234 49.5453V81.1472H227.808V54.0331C227.808 49.2648 224.56 44.6834 219.27 44.6834C214.351 44.6834 209.525 49.2648 209.525 54.0331V81.1472H193.099ZM356.262 57.1185C356.262 71.1431 346.518 82.5497 332.597 82.5497C326.193 82.5497 320.904 80.3993 317.006 76.5659V105.456H300.579V33.1833H316.82V38.6061H317.006C320.532 34.6793 326.101 31.7809 332.597 31.7809C346.518 31.7809 356.262 43.094 356.262 57.1185ZM338.815 57.1185C338.815 50.5737 334.36 45.8989 327.678 45.8989C321.275 45.8989 316.635 50.5737 316.635 57.1185C316.635 63.7568 321.553 68.4316 327.678 68.4316C333.896 68.4316 338.815 63.7568 338.815 57.1185ZM411.26 57.1185C411.26 71.1431 401.516 82.5497 387.595 82.5497C381.191 82.5497 375.901 80.3993 372.004 76.5659V105.456H355.577V33.1833H371.818V38.6061H372.004C375.53 34.6793 381.098 31.7809 387.595 31.7809C401.516 31.7809 411.26 43.094 411.26 57.1185ZM393.813 57.1185C393.813 50.5737 389.358 45.8989 382.676 45.8989C376.273 45.8989 371.632 50.5737 371.632 57.1185C371.632 63.7568 376.551 68.4316 382.676 68.4316C388.894 68.4316 393.813 63.7568 393.813 57.1185Z" fill="#151C10"/>
<path d="M360.92 38.575C360.86 35.1331 372.138 31.8141 383.627 31.6133C395.115 31.4126 402.516 35.5732 402.574 39.0152C402.634 42.4572 405.317 42.4749 387.228 42.7909C371.455 46.1836 360.979 42.017 360.92 38.575Z" fill="#151C10"/>
<path d="M304.458 38.244C304.398 34.802 315.676 31.483 327.165 31.2823C338.653 31.0816 346.053 35.2422 346.113 38.6841C346.172 42.126 348.855 42.1437 330.766 42.4598C314.993 45.8525 304.517 41.6859 304.458 38.244Z" fill="#151C10"/>
<path d="M274.215 84.1509C272.186 84.3924 270.227 84.207 268.267 83.9576C265.616 83.621 263.115 82.7578 260.709 81.5883C258.257 80.3962 256.066 78.7872 254.072 76.8838C251.804 74.7194 249.977 72.1897 248.549 69.3593C247.205 66.6968 246.32 63.8589 245.898 60.8764C245.227 56.1239 245.569 51.467 247.184 46.9435C248.279 43.8763 249.908 41.1387 251.916 38.6389C254.074 35.9519 256.63 33.7731 259.605 32.1506C262.302 30.6803 265.16 29.7271 268.174 29.2521C270.392 28.9025 272.622 28.8644 274.837 29.071C277.536 29.3229 280.149 30.0344 282.638 31.2049C287.351 33.4205 291.313 36.6025 294.195 41.1219C296.232 44.3145 297.542 47.843 298.231 51.6128C298.408 52.5806 298.498 53.5672 298.599 54.5483C298.636 54.9129 298.77 55.0779 299.119 55.1709C300.527 55.5466 300.892 56.6867 299.994 57.8781C298.381 60.015 296.76 62.1457 295.134 64.2713C294.257 65.417 293.208 65.3834 292.337 64.2242C290.861 62.2627 289.423 60.2682 287.875 58.3704C286.699 56.9275 287.216 55.5101 288.708 54.9562C288.498 51.5098 287.242 48.4979 285.182 45.8338C282.609 42.5053 279.346 40.2818 275.301 39.5181C268.962 38.3213 263.693 40.3921 259.446 45.4338C257.221 48.0744 255.953 51.1601 255.514 54.605C255.147 57.4758 255.568 60.2865 256.618 62.9616C258.23 67.0683 260.913 70.1985 264.724 72.1877C267.348 73.5573 270.148 74.0822 273.093 73.9099C275.151 73.7896 277.111 73.3657 278.988 72.4928C281.023 71.5468 282.725 70.1304 284.238 68.4459C284.629 68.0105 284.991 67.5446 285.403 67.1311C286.275 66.2532 287.389 66.1422 288.365 66.868C289.765 67.9074 291.153 68.9652 292.517 70.0559C293.818 71.0969 293.944 72.4855 292.917 73.8219C288.58 79.4628 282.955 82.7648 276.144 83.9093C275.523 84.0137 274.895 84.0698 274.215 84.1509Z" fill="#E87F89"/>
<path d="M265.403 59.7887C266.869 59.054 268.402 59.2998 269.282 60.3823C270.07 61.3529 270.189 62.7186 269.579 63.7786C268.942 64.8859 267.563 65.4952 266.361 65.1957C265.111 64.8842 264.272 64.094 264.05 62.7643C263.839 61.5046 264.358 60.5192 265.403 59.7887Z" fill="#E87F89"/>
<path d="M277.614 65.2982C275.263 65.2896 273.808 63.1811 274.689 61.1353C275.22 59.9042 276.698 59.1388 277.985 59.4298C279.422 59.7549 280.359 60.8556 280.37 62.232C280.383 63.7621 279.531 64.8717 278.071 65.2246C277.938 65.2568 277.801 65.2737 277.614 65.2982Z" fill="#E87F89"/>
<path d="M264.13 51.3639C264.029 49.731 264.835 48.5077 266.237 48.0984C267.651 47.6851 269.158 48.3195 269.782 49.6949C270.466 51.2036 269.867 53.1582 267.944 53.7431C266.219 54.2672 264.573 53.2362 264.13 51.3639Z" fill="#E87F89"/>
<path d="M280.236 50.0014C280.561 51.2803 280.308 52.3562 279.345 53.1552C278.33 53.9992 277.18 54.0878 276.019 53.5133C274.936 52.9774 274.386 52.0315 274.441 50.7831C274.494 49.5576 275.144 48.7127 276.209 48.235C277.322 47.7359 278.388 47.902 279.308 48.6936C279.687 49.0195 279.923 49.5274 280.236 50.0014Z" fill="#E87F89"/>
</svg>
