<svg width="251" height="236" viewBox="0 0 251 236" fill="none" xmlns="http://www.w3.org/2000/svg">
<path d="M94.1248 215.538C99.9008 215.538 104.583 211.151 104.583 205.741C104.583 200.33 99.9008 195.943 94.1248 195.943C88.3489 195.943 83.6665 200.33 83.6665 205.741C83.6665 211.151 88.3489 215.538 94.1248 215.538Z" stroke="#818181" stroke-width="5" stroke-linecap="round" stroke-linejoin="round"/>
<path d="M209.167 215.538C214.943 215.538 219.625 211.151 219.625 205.741C219.625 200.33 214.943 195.943 209.167 195.943C203.391 195.943 198.708 200.33 198.708 205.741C198.708 211.151 203.391 215.538 209.167 215.538Z" stroke="#818181" stroke-width="5" stroke-linecap="round" stroke-linejoin="round"/>
<path d="M10.4585 9.79718H52.2918L80.3202 140.981C81.2765 145.492 83.896 149.544 87.7199 152.427C91.5439 155.311 96.3287 156.843 101.237 156.755H202.892C207.8 156.843 212.585 155.311 216.409 152.427C220.233 149.544 222.852 145.492 223.809 140.981L240.542 58.7831H62.7502" stroke="#818181" stroke-width="5" stroke-linecap="round" stroke-linejoin="round"/>
<path d="M168 83C173 100 204.5 98.5 209 83" stroke="#818181" stroke-width="5" stroke-linecap="round"/>
<path d="M100 83C105 99.7296 136.5 98.2534 141 83" stroke="#818181" stroke-width="5" stroke-linecap="round"/>
<path d="M194 135C181.5 112.5 121 119.5 117.5 135" stroke="#818181" stroke-width="5" stroke-linecap="round"/>
</svg>
