<svg width="330" height="96" viewBox="0 0 330 96" fill="none" xmlns="http://www.w3.org/2000/svg">
<rect x="0.678772" width="328.66" height="96" rx="10" fill="black"/>
<path d="M51.4162 46.5645L24.9231 74.6825C24.9256 74.6874 24.9256 74.6949 24.9281 74.6999C25.7418 77.753 28.5287 80 31.8381 80C33.1619 80 34.4036 79.6417 35.4686 79.0146L35.5532 78.9649L65.3732 61.7581L51.4162 46.5645Z" fill="#EA4335"/>
<path d="M78.2177 41.7765L78.1928 41.7591L65.3182 34.2966L50.8138 47.2035L65.3705 61.7552L78.1754 54.3674C80.4199 53.1531 81.9452 50.7867 81.9452 48.0595C81.9452 45.3472 80.4422 42.9933 78.2177 41.7765Z" fill="#FBBC04"/>
<path d="M24.9226 21.3155C24.7634 21.9027 24.6788 22.5198 24.6788 23.1568V72.8436C24.6788 73.4806 24.7634 74.0977 24.9251 74.6824L52.3265 47.2836L24.9226 21.3155Z" fill="#4285F4"/>
<path d="M51.6119 47.9998L65.3225 34.2917L35.5374 17.0227C34.455 16.3733 33.1909 16 31.8397 16C28.5303 16 25.7384 18.252 24.9247 21.3076C24.9247 21.3101 24.9222 21.3126 24.9222 21.3151L51.6119 47.9998Z" fill="#34A853"/>
<path d="M120.943 23.9451C120.943 25.9161 120.359 27.4849 119.19 28.6562C117.862 30.0486 116.133 30.7448 114.007 30.7448C111.967 30.7448 110.236 30.0391 108.813 28.6256C107.386 27.2144 106.675 25.4621 106.675 23.3736C106.675 21.2826 107.386 19.5327 108.813 18.1192C110.236 16.708 111.967 16 114.007 16C115.016 16 115.985 16.1976 116.902 16.5927C117.822 16.9879 118.558 17.5124 119.11 18.1686L117.869 19.4104C116.935 18.2956 115.648 17.7358 114.007 17.7358C112.52 17.7358 111.236 18.258 110.152 19.3022C109.067 20.3489 108.526 21.7036 108.526 23.3736C108.526 25.0411 109.067 26.3982 110.152 27.4425C111.236 28.4892 112.52 29.009 114.007 29.009C115.582 29.009 116.895 28.4845 117.949 27.4331C118.631 26.7487 119.023 25.7985 119.129 24.5754H114.007V22.8796H120.844C120.91 23.2489 120.943 23.6041 120.943 23.9451Z" fill="white"/>
<path d="M120.943 23.9451C120.943 25.9161 120.359 27.4849 119.19 28.6562C117.862 30.0486 116.133 30.7448 114.007 30.7448C111.967 30.7448 110.236 30.0391 108.813 28.6256C107.386 27.2144 106.675 25.4621 106.675 23.3736C106.675 21.2826 107.386 19.5327 108.813 18.1192C110.236 16.708 111.967 16 114.007 16C115.016 16 115.985 16.1976 116.902 16.5927C117.822 16.9879 118.558 17.5124 119.11 18.1686L117.869 19.4104C116.935 18.2956 115.648 17.7358 114.007 17.7358C112.52 17.7358 111.236 18.258 110.152 19.3022C109.067 20.3489 108.526 21.7036 108.526 23.3736C108.526 25.0411 109.067 26.3982 110.152 27.4425C111.236 28.4892 112.52 29.009 114.007 29.009C115.582 29.009 116.895 28.4845 117.949 27.4331C118.631 26.7487 119.023 25.7985 119.129 24.5754H114.007V22.8796H120.844C120.91 23.2489 120.943 23.6041 120.943 23.9451Z" fill="white"/>
<path d="M131.784 18.0512H125.358V22.5247H131.154V24.2205H125.358V28.694H131.784V30.4298H123.545V16.3178H131.784V18.0512Z" fill="white"/>
<path d="M131.784 18.0512H125.358V22.5247H131.154V24.2205H125.358V28.694H131.784V30.4298H123.545V16.3178H131.784V18.0512Z" fill="white"/>
<path d="M139.43 30.4291H137.617V18.0505H133.675V16.3171H143.372V18.0505H139.43V30.4291Z" fill="white"/>
<path d="M139.43 30.4291H137.617V18.0505H133.675V16.3171H143.372V18.0505H139.43V30.4291Z" fill="white"/>
<path d="M150.389 16.3171H152.202V30.4291H150.389V16.3171Z" fill="white"/>
<path d="M160.244 30.4291H158.431V18.0505H154.489V16.3171H164.186V18.0505H160.244V30.4291Z" fill="white"/>
<path d="M160.244 30.4291H158.431V18.0505H154.489V16.3171H164.186V18.0505H160.244V30.4291Z" fill="white"/>
<path d="M173.535 27.4237C174.58 28.4821 175.857 29.009 177.369 29.009C178.882 29.009 180.159 28.4821 181.203 27.4237C182.247 26.3653 182.772 25.0153 182.772 23.3736C182.772 21.7319 182.247 20.3795 181.203 19.3234C180.159 18.265 178.882 17.7358 177.369 17.7358C175.857 17.7358 174.58 18.265 173.535 19.3234C172.494 20.3795 171.969 21.7319 171.969 23.3736C171.969 25.0153 172.494 26.3653 173.535 27.4237ZM182.544 28.6044C181.156 30.0321 179.432 30.7448 177.369 30.7448C175.307 30.7448 173.582 30.0321 172.197 28.6044C170.809 27.1791 170.118 25.4363 170.118 23.3736C170.118 21.3109 170.809 19.5657 172.197 18.1404C173.582 16.715 175.307 16 177.369 16C179.42 16 181.139 16.7174 182.534 18.1498C183.927 19.5821 184.623 21.3226 184.623 23.3736C184.623 25.4363 183.929 27.1791 182.544 28.6044Z" fill="white"/>
<path d="M173.535 27.4237C174.58 28.4821 175.857 29.009 177.369 29.009C178.882 29.009 180.159 28.4821 181.203 27.4237C182.247 26.3653 182.772 25.0153 182.772 23.3736C182.772 21.7319 182.247 20.3795 181.203 19.3234C180.159 18.265 178.882 17.7358 177.369 17.7358C175.857 17.7358 174.58 18.265 173.535 19.3234C172.494 20.3795 171.969 21.7319 171.969 23.3736C171.969 25.0153 172.494 26.3653 173.535 27.4237ZM182.544 28.6044C181.156 30.0321 179.432 30.7448 177.369 30.7448C175.307 30.7448 173.582 30.0321 172.197 28.6044C170.809 27.1791 170.118 25.4363 170.118 23.3736C170.118 21.3109 170.809 19.5657 172.197 18.1404C173.582 16.715 175.307 16 177.369 16C179.42 16 181.139 16.7174 182.534 18.1498C183.927 19.5821 184.623 21.3226 184.623 23.3736C184.623 25.4363 183.929 27.1791 182.544 28.6044Z" fill="white"/>
<path d="M187.167 30.4291V16.3171H189.374L196.232 27.2939H196.312L196.232 24.575V16.3171H198.048V30.4291H196.154L188.979 18.9184H188.901L188.979 21.6397V30.4291H187.167Z" fill="white"/>
<path d="M187.167 30.4291V16.3171H189.374L196.232 27.2939H196.312L196.232 24.575V16.3171H198.048V30.4291H196.154L188.979 18.9184H188.901L188.979 21.6397V30.4291H187.167Z" fill="white"/>
<path d="M260.928 70.4132H265.317V41.0108H260.928V70.4132ZM300.458 51.6019L295.427 64.3498H295.277L290.056 51.6019H285.328L293.158 69.4183L288.696 79.3297H293.271L305.339 51.6019H300.458ZM275.57 67.0734C274.13 67.0734 272.126 66.356 272.126 64.5755C272.126 62.3082 274.622 61.438 276.778 61.438C278.707 61.438 279.617 61.8543 280.789 62.4211C280.448 65.1447 278.103 67.0734 275.57 67.0734ZM276.099 50.9598C272.921 50.9598 269.628 52.3592 268.269 55.4615L272.164 57.0868C272.996 55.4615 274.546 54.93 276.174 54.93C278.444 54.93 280.751 56.2918 280.789 58.7143V59.0154C279.994 58.5615 278.293 57.8817 276.212 57.8817C272.013 57.8817 267.737 60.1891 267.737 64.5003C267.737 68.4352 271.181 70.9706 275.038 70.9706C277.99 70.9706 279.617 69.6465 280.638 68.0941H280.789V70.3638H285.025V59.0907C285.025 53.8716 281.13 50.9598 276.099 50.9598ZM248.975 55.1816H242.733V45.1033H248.975C252.256 45.1033 254.119 47.8199 254.119 50.1413C254.119 52.4204 252.256 55.1816 248.975 55.1816ZM248.862 41.0108H238.347V70.4132H242.733V59.2741H248.862C253.726 59.2741 258.508 55.7508 258.508 50.1413C258.508 44.5317 253.726 41.0108 248.862 41.0108ZM191.518 67.0781C188.486 67.0781 185.949 64.5403 185.949 61.0546C185.949 57.5313 188.486 54.9535 191.518 54.9535C194.512 54.9535 196.86 57.5313 196.86 61.0546C196.86 64.5403 194.512 67.0781 191.518 67.0781ZM196.559 53.2483H196.406C195.42 52.0746 193.527 51.0139 191.14 51.0139C186.137 51.0139 181.553 55.4074 181.553 61.0546C181.553 66.6618 186.137 71.02 191.14 71.02C193.527 71.02 195.42 69.9593 196.406 68.7457H196.559V70.1874C196.559 74.0141 194.512 76.0604 191.215 76.0604C188.524 76.0604 186.857 74.127 186.174 72.4971L182.348 74.0894C183.446 76.7425 186.365 80 191.215 80C196.368 80 200.726 76.9683 200.726 69.5806V51.6183H196.559V53.2483ZM203.758 70.4132H208.154V41.0084H203.758V70.4132ZM214.631 60.7135C214.518 56.8492 217.625 54.8782 219.86 54.8782C221.605 54.8782 223.082 55.7485 223.574 56.9997L214.631 60.7135ZM228.273 57.3784C227.44 55.144 224.9 51.0139 219.709 51.0139C214.556 51.0139 210.275 55.0664 210.275 61.017C210.275 66.6241 214.518 71.02 220.201 71.02C224.787 71.02 227.44 68.2164 228.539 66.5865L225.128 64.3121C223.992 65.9797 222.438 67.0781 220.201 67.0781C217.967 67.0781 216.374 66.055 215.351 64.0487L228.727 58.5144L228.273 57.3784ZM121.708 54.0832V58.3263H131.862C131.559 60.7136 130.764 62.4564 129.552 63.6677C128.073 65.1471 125.761 66.777 121.708 66.777C115.454 66.777 110.567 61.7367 110.567 55.485C110.567 49.2311 115.454 44.1931 121.708 44.1931C125.081 44.1931 127.544 45.5196 129.362 47.2248L132.356 44.2307C129.816 41.8058 126.445 39.9477 121.708 39.9477C113.145 39.9477 105.945 46.9214 105.945 55.485C105.945 64.0487 113.145 71.02 121.708 71.02C126.33 71.02 129.816 69.503 132.544 66.6618C135.35 63.8582 136.22 59.9186 136.22 56.734C136.22 55.7485 136.145 54.8406 135.992 54.0832H121.708ZM147.766 67.0781C144.734 67.0781 142.119 64.5779 142.119 61.017C142.119 57.416 144.734 54.9535 147.766 54.9535C150.796 54.9535 153.411 57.416 153.411 61.017C153.411 64.5779 150.796 67.0781 147.766 67.0781ZM147.766 51.0139C142.232 51.0139 137.723 55.2193 137.723 61.017C137.723 66.777 142.232 71.02 147.766 71.02C153.298 71.02 157.807 66.777 157.807 61.017C157.807 55.2193 153.298 51.0139 147.766 51.0139ZM169.67 67.0781C166.639 67.0781 164.023 64.5779 164.023 61.017C164.023 57.416 166.639 54.9535 169.67 54.9535C172.702 54.9535 175.315 57.416 175.315 61.017C175.315 64.5779 172.702 67.0781 169.67 67.0781ZM169.67 51.0139C164.139 51.0139 159.63 55.2193 159.63 61.017C159.63 66.777 164.139 71.02 169.67 71.02C175.202 71.02 179.711 66.777 179.711 61.017C179.711 55.2193 175.202 51.0139 169.67 51.0139Z" fill="white"/>
</svg>
