<svg width="321" height="96" viewBox="0 0 321 96" fill="none" xmlns="http://www.w3.org/2000/svg">
<rect x="0.338867" width="320.296" height="96" rx="10" fill="black"/>
<path d="M67.8285 50.0351C67.8601 47.582 68.5117 45.1768 69.7226 43.0432C70.9336 40.9096 72.6645 39.117 74.7544 37.8321C73.4268 35.936 71.6753 34.3755 69.639 33.2747C67.6028 32.1739 65.338 31.563 63.0243 31.4906C58.089 30.9726 53.3044 34.4439 50.7895 34.4439C48.2259 34.4439 44.3537 31.5421 40.184 31.6279C37.487 31.715 34.8585 32.4993 32.5546 33.9043C30.2508 35.3093 28.3502 37.2872 27.038 39.6451C21.354 49.4862 25.5938 63.9492 31.0386 71.904C33.7628 75.7993 36.9466 80.1503 41.1125 79.996C45.1891 79.827 46.7116 77.3965 51.6324 77.3965C56.5076 77.3965 57.936 79.996 62.1865 79.8979C66.5608 79.8269 69.3169 75.9854 71.9455 72.0533C73.9028 69.2778 75.409 66.2103 76.4082 62.9643C73.8668 61.8894 71.698 60.0902 70.1723 57.7911C68.6466 55.4919 67.8314 52.7944 67.8285 50.0351Z" fill="white"/>
<path d="M59.8002 26.259C62.1853 23.3958 63.3603 19.7156 63.0758 16C59.4319 16.3827 56.0659 18.1243 53.6486 20.8776C52.4667 22.2227 51.5615 23.7876 50.9847 25.4827C50.408 27.1778 50.171 28.97 50.2872 30.7568C52.1098 30.7756 53.9129 30.3805 55.5607 29.6014C57.2085 28.8223 58.6581 27.6795 59.8002 26.259Z" fill="white"/>
<path d="M120.995 63.7751H108.621L105.649 72.349H100.408L112.129 40.6277H117.574L129.295 72.349H123.964L120.995 63.7751ZM109.903 59.8187H119.711L114.876 45.9039H114.741L109.903 59.8187Z" fill="white"/>
<path d="M154.608 60.7865C154.608 67.9735 150.671 72.5909 144.73 72.5909C143.225 72.6678 141.729 72.3291 140.412 71.6135C139.095 70.8979 138.01 69.8344 137.283 68.5447H137.171V79.9998H132.313V49.2216H137.015V53.0683H137.105C137.865 51.7847 138.968 50.7267 140.295 50.0067C141.622 49.2868 143.124 48.9318 144.641 48.9796C150.648 48.9796 154.608 53.6196 154.608 60.7865ZM149.614 60.7865C149.614 56.1042 147.138 53.0258 143.359 53.0258C139.647 53.0258 137.15 56.169 137.15 60.7865C137.15 65.4464 139.647 68.5672 143.359 68.5672C147.138 68.5672 149.614 65.5113 149.614 60.7865Z" fill="white"/>
<path d="M180.658 60.7867C180.658 67.9736 176.722 72.5911 170.781 72.5911C169.276 72.668 167.779 72.3293 166.462 71.6137C165.145 70.8981 164.061 69.8345 163.334 68.5448H163.221V80H158.363V49.2218H163.066V53.0684H163.155C163.916 51.7849 165.018 50.7269 166.345 50.0069C167.672 49.2869 169.174 48.932 170.691 48.9798C176.699 48.9798 180.658 53.6197 180.658 60.7867ZM175.665 60.7867C175.665 56.1044 173.188 53.026 169.41 53.026C165.698 53.026 163.201 56.1692 163.201 60.7867C163.201 65.4466 165.698 68.5673 169.41 68.5673C173.188 68.5673 175.665 65.5114 175.665 60.7867H175.665Z" fill="white"/>
<path d="M197.875 63.5107C198.235 66.6564 201.363 68.7218 205.637 68.7218C209.731 68.7218 212.678 66.6563 212.678 63.82C212.678 61.3578 210.901 59.8835 206.693 58.8732L202.486 57.8828C196.525 56.4759 193.758 53.7518 193.758 49.3314C193.758 43.8582 198.639 40.0989 205.57 40.0989C212.43 40.0989 217.133 43.8582 217.291 49.3314H212.387C212.093 46.1657 209.415 44.2549 205.501 44.2549C201.587 44.2549 198.909 46.1882 198.909 49.0021C198.909 51.2447 200.62 52.5644 204.804 53.5746L208.381 54.4327C215.042 55.9719 217.809 58.5863 217.809 63.2262C217.809 69.1608 212.971 72.8777 205.276 72.8777C198.077 72.8777 193.216 69.2481 192.902 63.5105L197.875 63.5107Z" fill="white"/>
<path d="M228.294 43.7486V49.2217H232.795V52.9811H228.294V65.7309C228.294 67.7116 229.195 68.6346 231.174 68.6346C231.708 68.6255 232.242 68.5889 232.772 68.5248V72.2617C231.882 72.4241 230.978 72.4977 230.074 72.4812C225.282 72.4812 223.413 70.7225 223.413 66.2373V52.9811H219.971V49.2217H223.413V43.7486H228.294Z" fill="white"/>
<path d="M235.402 60.7866C235.402 53.5099 239.788 48.9373 246.627 48.9373C253.49 48.9373 257.855 53.5098 257.855 60.7866C257.855 68.0833 253.512 72.6359 246.627 72.6359C239.744 72.6359 235.402 68.0833 235.402 60.7866ZM252.905 60.7866C252.905 55.7949 250.564 52.8488 246.627 52.8488C242.69 52.8488 240.352 55.8174 240.352 60.7866C240.352 65.7982 242.69 68.7219 246.627 68.7219C250.564 68.7219 252.905 65.7982 252.905 60.7866H252.905Z" fill="white"/>
<path d="M261.861 49.2217H266.494V53.1582H266.607C266.92 51.9287 267.657 50.8422 268.694 50.0813C269.731 49.3204 271.004 48.9314 272.3 48.9797C272.86 48.9778 273.418 49.0372 273.964 49.1569V53.5972C273.257 53.3862 272.52 53.2893 271.781 53.3104C271.076 53.2824 270.372 53.404 269.719 53.6668C269.066 53.9296 268.478 54.3274 267.998 54.8329C267.517 55.3384 267.153 55.9397 266.933 56.5953C266.712 57.251 266.639 57.9455 266.719 58.6313V72.3491H261.861L261.861 49.2217Z" fill="white"/>
<path d="M296.364 65.5563C295.71 69.7547 291.526 72.6359 286.173 72.6359C279.287 72.6359 275.014 68.1282 275.014 60.8964C275.014 53.6421 279.31 48.9373 285.968 48.9373C292.517 48.9373 296.635 53.3328 296.635 60.3451V61.9716H279.918V62.2584C279.841 63.1096 279.95 63.967 280.238 64.7738C280.526 65.5806 280.986 66.3183 281.588 66.9379C282.191 67.5575 282.921 68.0448 283.731 68.3674C284.54 68.69 285.411 68.8406 286.285 68.8092C287.433 68.9143 288.585 68.6545 289.57 68.0684C290.555 67.4823 291.32 66.6012 291.751 65.5563L296.364 65.5563ZM279.941 58.6537H291.774C291.817 57.8884 291.699 57.1226 291.425 56.4042C291.151 55.6859 290.729 55.0306 290.184 54.4794C289.638 53.9283 288.983 53.4931 288.257 53.2014C287.532 52.9096 286.753 52.7675 285.968 52.784C285.177 52.7794 284.393 52.9279 283.661 53.221C282.929 53.5141 282.263 53.946 281.703 54.4917C281.142 55.0374 280.698 55.6862 280.396 56.4005C280.093 57.1149 279.939 57.8807 279.941 58.6538V58.6537Z" fill="white"/>
<path d="M109.294 16.7511C110.312 16.6796 111.334 16.83 112.286 17.1913C113.238 17.5526 114.096 18.1158 114.798 18.8403C115.5 19.5648 116.029 20.4325 116.347 21.3809C116.664 22.3293 116.762 23.3347 116.634 24.3246C116.634 29.1941 113.94 31.9931 109.294 31.9931H103.659V16.7511H109.294ZM106.082 29.8376H109.023C109.751 29.8801 110.479 29.7635 111.155 29.4962C111.831 29.229 112.437 28.8179 112.93 28.2928C113.423 27.7677 113.79 27.1418 114.004 26.4607C114.218 25.7797 114.274 25.0605 114.167 24.3557C114.266 23.6536 114.204 22.939 113.987 22.2629C113.77 21.5868 113.402 20.9661 112.91 20.4452C112.419 19.9242 111.815 19.516 111.143 19.2497C110.471 18.9835 109.747 18.8657 109.023 18.905H106.082V29.8376Z" fill="white"/>
<path d="M119.37 26.2366C119.296 25.4807 119.385 24.718 119.63 23.9975C119.875 23.277 120.272 22.6145 120.795 22.0525C121.318 21.4906 121.955 21.0416 122.665 20.7344C123.376 20.4271 124.145 20.2684 124.922 20.2684C125.699 20.2684 126.467 20.4271 127.178 20.7344C127.889 21.0416 128.526 21.4906 129.049 22.0525C129.571 22.6145 129.968 23.277 130.213 23.9975C130.459 24.718 130.547 25.4807 130.473 26.2366C130.549 26.9933 130.461 27.757 130.216 28.4787C129.972 29.2004 129.575 29.8641 129.052 30.4272C128.53 30.9902 127.892 31.4401 127.181 31.748C126.469 32.056 125.7 32.215 124.922 32.215C124.144 32.215 123.374 32.056 122.663 31.748C121.951 31.4401 121.314 30.9902 120.791 30.4272C120.268 29.8641 119.872 29.2004 119.627 28.4787C119.382 27.757 119.295 26.9933 119.37 26.2366ZM128.084 26.2366C128.084 23.7433 126.937 22.2852 124.926 22.2852C122.906 22.2852 121.77 23.7433 121.77 26.2366C121.77 28.75 122.906 30.1968 124.926 30.1968C126.937 30.1968 128.084 28.7399 128.084 26.2366H128.084Z" fill="white"/>
<path d="M145.232 31.9929H142.822L140.389 23.5212H140.205L137.782 31.9929H135.395L132.151 20.4903H134.507L136.616 29.2674H136.789L139.21 20.4903H141.438L143.858 29.2674H144.042L146.141 20.4903H148.464L145.232 31.9929Z" fill="white"/>
<path d="M151.193 20.4903H153.43V22.3175H153.603C153.898 21.6612 154.394 21.1111 155.024 20.7437C155.654 20.3764 156.385 20.2102 157.116 20.2682C157.689 20.2261 158.264 20.3105 158.799 20.5151C159.334 20.7197 159.815 21.0393 160.206 21.4502C160.597 21.861 160.889 22.3527 161.059 22.8887C161.23 23.4246 161.275 23.9912 161.191 24.5464V31.9927H158.867V25.1165C158.867 23.268 158.045 22.3487 156.327 22.3487C155.938 22.331 155.55 22.3957 155.189 22.5383C154.828 22.6809 154.503 22.8981 154.236 23.175C153.969 23.4519 153.767 23.7818 153.642 24.1424C153.518 24.5029 153.475 24.8854 153.516 25.2636V31.9928H151.193L151.193 20.4903Z" fill="white"/>
<path d="M164.892 16H167.216V31.9928H164.892V16Z" fill="white"/>
<path d="M170.445 26.2367C170.371 25.4807 170.46 24.718 170.705 23.9974C170.95 23.2768 171.347 22.6143 171.87 22.0524C172.393 21.4904 173.03 21.0414 173.741 20.7342C174.451 20.427 175.22 20.2682 175.997 20.2682C176.774 20.2682 177.543 20.427 178.254 20.7342C178.964 21.0414 179.602 21.4904 180.124 22.0524C180.647 22.6143 181.044 23.2768 181.289 23.9974C181.535 24.718 181.623 25.4807 181.549 26.2367C181.625 26.9934 181.537 27.7571 181.292 28.4788C181.047 29.2005 180.651 29.8642 180.128 30.4272C179.605 30.9902 178.968 31.4401 178.256 31.748C177.545 32.0559 176.775 32.215 175.997 32.215C175.219 32.215 174.45 32.0559 173.738 31.748C173.027 31.4401 172.389 30.9902 171.866 30.4272C171.343 29.8642 170.947 29.2005 170.702 28.4788C170.457 27.7571 170.37 26.9934 170.445 26.2367ZM179.158 26.2367C179.158 23.7433 178.012 22.2852 176 22.2852C173.981 22.2852 172.845 23.7433 172.845 26.2367C172.845 28.75 173.981 30.1968 176 30.1968C178.012 30.1968 179.158 28.74 179.158 26.2367H179.158Z" fill="white"/>
<path d="M183.995 28.7399C183.995 26.6693 185.573 25.4757 188.373 25.3061L191.562 25.1265V24.1336C191.562 22.9187 190.74 22.2327 189.152 22.2327C187.855 22.2327 186.956 22.698 186.699 23.5112H184.449C184.687 21.5355 186.589 20.2682 189.259 20.2682C192.21 20.2682 193.875 21.7039 193.875 24.1336V31.9928H191.639V30.3763H191.455C191.082 30.9562 190.558 31.4289 189.937 31.7462C189.315 32.0635 188.619 32.214 187.919 32.1823C187.425 32.2326 186.925 32.181 186.453 32.0311C185.98 31.8812 185.545 31.6361 185.175 31.3118C184.806 30.9874 184.51 30.591 184.306 30.148C184.103 29.705 183.997 29.2253 183.995 28.7399ZM191.562 27.757V26.7953L188.687 26.9749C187.066 27.081 186.331 27.6198 186.331 28.6338C186.331 29.6691 187.25 30.2715 188.514 30.2715C188.884 30.3082 189.258 30.2716 189.614 30.1641C189.969 30.0566 190.299 29.8803 190.583 29.6457C190.868 29.4111 191.101 29.123 191.269 28.7985C191.437 28.474 191.537 28.1198 191.562 27.757Z" fill="white"/>
<path d="M196.928 26.2366C196.928 22.602 198.841 20.2995 201.815 20.2995C202.55 20.2663 203.281 20.4385 203.92 20.7959C204.559 21.1532 205.081 21.681 205.425 22.3175H205.598V16H207.921V31.9928H205.695V30.1755H205.511C205.141 30.8077 204.601 31.3289 203.949 31.6827C203.298 32.0364 202.56 32.2092 201.815 32.1824C198.82 32.1825 196.928 29.8799 196.928 26.2366ZM199.328 26.2366C199.328 28.6763 200.505 30.1444 202.473 30.1444C204.432 30.1444 205.642 28.6551 205.642 26.2466C205.642 23.8493 204.419 22.3388 202.473 22.3388C200.518 22.3388 199.328 23.8168 199.328 26.2366H199.328Z" fill="white"/>
<path d="M217.533 26.2366C217.459 25.4807 217.548 24.718 217.793 23.9975C218.038 23.277 218.435 22.6145 218.958 22.0525C219.481 21.4906 220.118 21.0416 220.828 20.7344C221.539 20.4271 222.308 20.2684 223.085 20.2684C223.862 20.2684 224.63 20.4271 225.341 20.7344C226.052 21.0416 226.689 21.4906 227.212 22.0525C227.734 22.6145 228.131 23.277 228.376 23.9975C228.622 24.718 228.71 25.4807 228.636 26.2366C228.712 26.9933 228.624 27.757 228.38 28.4787C228.135 29.2004 227.738 29.8641 227.216 30.4272C226.693 30.9902 226.055 31.4401 225.344 31.748C224.632 32.056 223.863 32.215 223.085 32.215C222.307 32.215 221.537 32.056 220.826 31.748C220.114 31.4401 219.477 30.9902 218.954 30.4272C218.431 29.8641 218.035 29.2004 217.79 28.4787C217.545 27.757 217.458 26.9933 217.533 26.2366ZM226.247 26.2366C226.247 23.7433 225.1 22.2852 223.089 22.2852C221.069 22.2852 219.933 23.7433 219.933 26.2366C219.933 28.75 221.069 30.1968 223.089 30.1968C225.1 30.1968 226.247 28.7399 226.247 26.2366Z" fill="white"/>
<path d="M231.753 20.4903H233.99V22.3175H234.163C234.458 21.6612 234.955 21.1111 235.584 20.7437C236.214 20.3764 236.945 20.2102 237.676 20.2682C238.249 20.2261 238.824 20.3105 239.359 20.5151C239.894 20.7197 240.375 21.0393 240.766 21.4502C241.157 21.861 241.449 22.3527 241.62 22.8887C241.79 23.4246 241.835 23.9912 241.751 24.5464V31.9927H239.428V25.1165C239.428 23.268 238.606 22.3487 236.887 22.3487C236.499 22.331 236.11 22.3957 235.749 22.5383C235.388 22.6809 235.063 22.8981 234.796 23.175C234.529 23.4519 234.327 23.7818 234.203 24.1424C234.078 24.5029 234.035 24.8854 234.077 25.2636V31.9928H231.753V20.4903Z" fill="white"/>
<path d="M254.878 17.6265V20.5427H257.429V22.4548H254.878V28.3695C254.878 29.5744 255.386 30.102 256.543 30.102C256.839 30.1011 257.135 30.0836 257.429 30.0496V31.9405C257.011 32.0134 256.589 32.0522 256.165 32.0565C253.581 32.0565 252.552 31.1684 252.552 28.9507V22.4547H250.684V20.5426H252.552V17.6265H254.878Z" fill="white"/>
<path d="M260.602 16H262.905V22.3388H263.089C263.397 21.6763 263.908 21.1231 264.55 20.7543C265.192 20.3856 265.935 20.2194 266.678 20.2782C267.248 20.2479 267.817 20.3409 268.346 20.5505C268.875 20.76 269.35 21.0811 269.737 21.4906C270.124 21.9002 270.414 22.3883 270.586 22.9199C270.758 23.4516 270.808 24.0138 270.732 24.5664V31.9928H268.407V25.1265C268.407 23.2892 267.531 22.3587 265.889 22.3587C265.49 22.3267 265.088 22.3803 264.712 22.5159C264.337 22.6514 263.996 22.8655 263.713 23.1433C263.431 23.421 263.214 23.7557 263.078 24.1239C262.942 24.4921 262.89 24.8849 262.925 25.2749V31.9928H260.602L260.602 16Z" fill="white"/>
<path d="M284.278 28.8871C283.963 29.9384 283.279 30.8477 282.346 31.4561C281.414 32.0644 280.292 32.333 279.177 32.2149C278.402 32.2349 277.631 32.0898 276.919 31.7895C276.206 31.4893 275.569 31.0412 275.052 30.4763C274.535 29.9114 274.149 29.2433 273.923 28.5183C273.696 27.7933 273.634 27.0288 273.74 26.2778C273.636 25.5245 273.7 24.7584 273.926 24.0312C274.152 23.304 274.535 22.6328 275.05 22.0629C275.565 21.4931 276.199 21.038 276.909 20.7283C277.619 20.4187 278.389 20.2618 279.167 20.2683C282.443 20.2683 284.419 22.4549 284.419 26.0669V26.8591H276.106V26.9863C276.07 27.4084 276.124 27.8333 276.266 28.2337C276.407 28.6341 276.633 29.0012 276.928 29.3114C277.223 29.6217 277.581 29.8683 277.98 30.0353C278.378 30.2024 278.808 30.2862 279.241 30.2815C279.797 30.3467 280.36 30.2489 280.859 30.0006C281.357 29.7523 281.769 29.3647 282.042 28.887L284.278 28.8871ZM276.106 25.1802H282.052C282.081 24.7941 282.028 24.4064 281.894 24.0418C281.761 23.6772 281.551 23.3439 281.278 23.0633C281.006 22.7827 280.676 22.5609 280.31 22.4123C279.944 22.2637 279.55 22.1915 279.154 22.2004C278.753 22.1955 278.354 22.2692 277.982 22.4172C277.609 22.5652 277.271 22.7845 276.987 23.0622C276.703 23.3399 276.479 23.6704 276.328 24.0341C276.176 24.3979 276.101 24.7876 276.106 25.1802H276.106Z" fill="white"/>
</svg>
